<svg width="20" height="20" viewBox="0 0 20 20" fill="none" xmlns="http://www.w3.org/2000/svg">
<path fill-rule="evenodd" clip-rule="evenodd" d="M8.58815 4.34081C10.5395 2.38948 13.7082 2.3945 15.6569 4.34315C17.6095 6.29577 17.6074 9.46372 15.6592 11.4119L11.4119 15.6592C9.46056 17.6105 6.29181 17.6055 4.34316 15.6569C2.39054 13.7042 2.39267 10.5363 4.34082 8.58814L8.58815 4.34081ZM10.002 5.75535L5.75536 10.002C4.58473 11.1727 4.5858 13.0711 5.75738 14.2426C6.92657 15.4118 8.82754 15.4151 9.998 14.2447L14.2447 9.99799C15.4153 8.82736 15.4142 6.92894 14.2427 5.75736C13.0735 4.58818 11.1725 4.58489 10.002 5.75535ZM7.8787 5.05026L5.05027 7.87868L6.46448 9.2929L9.29291 6.46447L7.8787 5.05026ZM13.5356 10.7071L10.7071 13.5355L12.1213 14.9498L14.9498 12.1213L13.5356 10.7071ZM10.7136 7.87216C11.1006 7.48524 11.7281 7.48544 12.1213 7.87868C12.5119 8.26921 12.5096 8.90468 12.1279 9.28638L9.28639 12.1278C8.89947 12.5148 8.27194 12.5146 7.8787 12.1213C7.48817 11.7308 7.49048 11.0953 7.87218 10.7136L10.7136 7.87216Z" fill="#3E4056"/>
<mask id="mask0" mask-type="alpha" maskUnits="userSpaceOnUse" x="0" y="0" width="20" height="20">
<path fill-rule="evenodd" clip-rule="evenodd" d="M8.58815 4.34081C10.5395 2.38948 13.7082 2.3945 15.6569 4.34315C17.6095 6.29577 17.6074 9.46372 15.6592 11.4119L11.4119 15.6592C9.46056 17.6105 6.29181 17.6055 4.34316 15.6569C2.39054 13.7042 2.39267 10.5363 4.34082 8.58814L8.58815 4.34081ZM10.002 5.75535L5.75536 10.002C4.58473 11.1727 4.5858 13.0711 5.75738 14.2426C6.92657 15.4118 8.82754 15.4151 9.998 14.2447L14.2447 9.99799C15.4153 8.82736 15.4142 6.92894 14.2427 5.75736C13.0735 4.58818 11.1725 4.58489 10.002 5.75535ZM7.8787 5.05026L5.05027 7.87868L6.46448 9.2929L9.29291 6.46447L7.8787 5.05026ZM13.5356 10.7071L10.7071 13.5355L12.1213 14.9498L14.9498 12.1213L13.5356 10.7071ZM10.7136 7.87216C11.1006 7.48524 11.7281 7.48544 12.1213 7.87868C12.5119 8.26921 12.5096 8.90468 12.1279 9.28638L9.28639 12.1278C8.89947 12.5148 8.27194 12.5146 7.8787 12.1213C7.48817 11.7308 7.49048 11.0953 7.87218 10.7136L10.7136 7.87216Z" fill="white"/>
</mask>
<g mask="url(#mask0)">
<rect x="2" y="2" width="16" height="16" fill="#3E4056"/>
</g>
</svg>
